<svg id="Layer_1" data-name="Layer 1" xmlns="http://www.w3.org/2000/svg" viewBox="0 0 364.85 267.64"><path d="M80.66,114.86a72.63,72.63,0,0,1-26.8,4.46c-27.7,0-43.79-17.86-43.79-42,0-17,14.3-49.15,59-64.34l2.68,13.42C44.93,32.65,22.59,54.1,22.59,77.33c0,15.19,9.8,31.28,34,31.28a41.81,41.81,0,0,0,12.52-1.79v-34H80.67V94.31c0,5.36,0,18.76,0,20.55" style="fill:#e0ff00"/><path d="M144.11,117.54c.9-10.72,3.57-92,4.47-107.23h.9c3.56,4.47,59,76,62.54,80.43v-76l12.52.89c-.9,8.94-2.68,67.92-3.58,104.55h-.89c-3.58-3.58-61.66-78.64-63.45-80.42,0,2.68-.89,73.29-.89,78.64Z" style="fill:#e0ff00"/><path d="M337.13,114.86c-3.57,0-40.21-1.78-42.9-1.78V12.1c2.69,0,34.85-1.79,40.22-2.68l.89,12.51c-5.36,0-26.81.89-28.6.89V58.57c2.68,0,17.87-.9,25-1.79V69.29c-3.57,0-22.34-.89-25-.89v33.93c2.68,0,18.77,0,30.39-.89Z" style="fill:#e0ff00"/><path d="M23.48,150.61c7.15.89,62.55,3.57,65.23,3.57-4.47,7.15-50.93,87.57-52.72,90.25,6.26,0,46.45-.89,49.15-.89v12.51c-2.68,0-62.55-1.79-67.91-1.79,5.35-7.13,50.93-85.78,53.6-90.23-4.47,0-44.68-.9-47.35-.9Z" style="fill:#e0ff00"/><path d="M153.47,154s18.86.18,28.69,1.07c39.31,3.57,42.89,27.71,42.89,37.53,0,46.46-41.11,63.45-73.3,63.45Zm11.73,89.54c32.16-2.68,48.25-25.91,48.25-47.36,0-22.34-17.87-31.28-48.25-30.38Z" style="fill:#e0ff00"/><path d="M268.32,210.48c0-32.17,18.77-58.09,48.26-58.09,23.22,0,40.2,17.87,40.2,49.15,0,22.34-12.5,56.3-47.35,56.3-26.81,0-41.11-22.34-41.11-47.36m76-8c0-25.92-14.3-38.43-30.38-38.43-21.45,0-34,19.66-34,44.68,0,21.45,11.61,38.42,29.49,38.42,19.65,0,34.85-16.08,34.85-44.67" style="fill:#e0ff00"/><path d="M73.75,108.6A72.7,72.7,0,0,1,47,113.06c-27.71,0-43.79-17.86-43.79-42,0-17,14.29-49.15,59-64.34l2.68,13.42C38,26.39,15.67,47.84,15.67,71.07c0,15.19,9.81,31.28,34,31.28a41.7,41.7,0,0,0,12.51-1.79v-34H73.76V88.05c0,5.36,0,18.76,0,20.55" style="fill:#fff"/><path d="M137.2,111.28c.89-10.72,3.57-92,4.47-107.23h.89c3.57,4.47,59,76,62.55,80.43v-76l12.51.89c-.89,8.94-2.68,67.92-3.57,104.55h-.89c-3.58-3.58-61.66-78.64-63.45-80.42,0,2.68-.89,73.29-.89,78.64Z" style="fill:#fff"/><path d="M330.21,108.6c-3.57,0-40.2-1.78-42.89-1.78V5.84c2.68,0,34.85-1.79,40.21-2.68l.89,12.51c-5.36,0-26.81.89-28.59.89V52.31c2.68,0,17.87-.9,25-1.79V63c-3.58,0-22.34-.89-25-.89V96.07c2.68,0,18.77,0,30.38-.89Z" style="fill:#fff"/><path d="M16.56,144.35c7.15.89,62.55,3.57,65.24,3.57-4.47,7.15-50.94,87.57-52.73,90.25,6.26,0,46.46-.89,49.16-.89v12.51c-2.69,0-62.55-1.79-67.92-1.79,5.36-7.13,50.93-85.78,53.61-90.23-4.47,0-44.68-.9-47.36-.9Z" style="fill:#fff"/><path d="M146.55,147.74s18.86.18,28.69,1.07c39.32,3.57,42.9,27.71,42.9,37.53,0,46.46-41.11,63.45-73.3,63.45Zm11.73,89.54c32.17-2.68,48.25-25.91,48.25-47.36,0-22.34-17.87-31.28-48.25-30.38Z" style="fill:#fff"/><path d="M261.41,204.22c0-32.17,18.77-58.09,48.25-58.09,23.23,0,40.21,17.87,40.21,49.15,0,22.34-12.51,56.3-47.36,56.3-26.8,0-41.1-22.34-41.1-47.36m75.95-8c0-25.91-14.3-38.43-30.38-38.43-21.44,0-34,19.66-34,44.68,0,21.45,11.62,38.42,29.49,38.42,19.66,0,34.85-16.08,34.85-44.67" style="fill:#fff"/></svg>